HIERARCHY
ROOT Hips
{
	OFFSET 0.00000 0.00000 0.00000
	CHANNELS 6 Xposition Yposition Zposition Zrotation Yrotation Xrotation 
	JOINT LHipJoint
	{
		OFFSET 0 0 0
		CHANNELS 3 Zrotation Yrotation Xrotation
		JOINT LeftHip
		{
			OFFSET 1.81638 -1.86202 0.89635
			CHANNELS 3 Zrotation Yrotation Xrotation
			JOINT LeftKnee
			{
				OFFSET 2.63464 -7.23861 0.00000
				CHANNELS 3 Zrotation Yrotation Xrotation
				JOINT LeftAnkle
				{
					OFFSET 2.45871 -6.75336 0.00000
					CHANNELS 3 Zrotation Yrotation Xrotation
					JOINT LeftToe
					{
						OFFSET 0.34235 -0.94059 2.20020
						CHANNELS 3 Zrotation Yrotation Xrotation
						End Site
						{
							OFFSET 0.00000 -0.00000 1.18611
						}
					}
				}
			}
		}
	}
	JOINT RHipJoint
	{
		OFFSET 0 0 0
		CHANNELS 3 Zrotation Yrotation Xrotation
		JOINT RightHip
		{
			OFFSET -1.84405 -1.86203 0.89635
			CHANNELS 3 Zrotation Yrotation Xrotation
			JOINT RightKnee
			{
				OFFSET -2.71067 -7.44751 0.00000
				CHANNELS 3 Zrotation Yrotation Xrotation
				JOINT RightAnkle
				{
					OFFSET -2.47159 -6.79060 0.00000
					CHANNELS 3 Zrotation Yrotation Xrotation
					JOINT RightToe
					{
						OFFSET -0.26223 -0.72048 2.36007
						CHANNELS 3 Zrotation Yrotation Xrotation
						End Site
						{
							OFFSET -0.00000 -0.00000 1.23343
						}
					}
				}
			}
		}
	}
	JOINT lowerback
	{
		OFFSET 0 0 0
		CHANNELS 3 Zrotation Yrotation Xrotation
		JOINT Chest
		{
			OFFSET 0.02089 1.99248 -0.22512
			CHANNELS 3 Zrotation Yrotation Xrotation
			JOINT Chest2
			{
				OFFSET 0.01476 2.01356 -0.03079
				CHANNELS 3 Zrotation Yrotation Xrotation
				JOINT lowerneck
				{
					OFFSET 0 0 0
					CHANNELS 3 Zrotation Yrotation Xrotation
					JOINT Neck
					{
						OFFSET 0.04846 1.65098 0.06663
						CHANNELS 3 Zrotation Yrotation Xrotation
						JOINT Head
						{
							OFFSET -0.06061 1.60634 -0.07565
							CHANNELS 3 Zrotation Yrotation Xrotation
							End Site
							{
								OFFSET -0.02954 1.73562 -0.03642
							}
						}
					}
				}
				JOINT LeftCollar
				{
					OFFSET 0 0 0
					CHANNELS 3 Zrotation Yrotation Xrotation
					JOINT LeftShoulder
					{
						OFFSET 3.45234 1.47051 -0.06993
CHANNELS 3 Zrotation Xrotation Yrotation
						JOINT LeftElbow
						{
OFFSET 0 -5.493130 0.000000
CHANNELS 3 Zrotation Xrotation Yrotation
							JOINT LeftWrist
							{
OFFSET 0 -3.290370 0.000000
CHANNELS 3 Zrotation Xrotation Yrotation
								JOINT lhand
								{
									OFFSET 0 0 0
CHANNELS 3 Zrotation Xrotation Yrotation
									JOINT LFingers
									{
OFFSET 0 -0.729660 0.000000
CHANNELS 3 Zrotation Xrotation Yrotation
										End Site
										{
OFFSET 0 -0.588270 0.000000
										}
									}
								}
								JOINT LThumb
								{
OFFSET 0 0.000000 0.000000
CHANNELS 3 Zrotation Xrotation Yrotation
									End Site
									{
OFFSET 0 -0.597250 0.597250
									}
								}
							}
						}
					}
				}
				JOINT RightCollar
				{
					OFFSET 0 0 0
					CHANNELS 3 Zrotation Yrotation Xrotation
					JOINT RightShoulder
					{
						OFFSET -3.41935 1.44327 0.20453
CHANNELS 3 Zrotation Xrotation Yrotation
						JOINT RightElbow
						{
OFFSET 0 -5.236840 0.000000
CHANNELS 3 Zrotation Xrotation Yrotation
							JOINT RightWrist
							{
OFFSET 0 -3.382510 0.000000
CHANNELS 3 Zrotation Xrotation Yrotation
								JOINT rhand
								{
									OFFSET 0 0 0
CHANNELS 3 Zrotation Xrotation Yrotation
									JOINT RFingers
									{
OFFSET 0 -0.691450 0.000000
CHANNELS 3 Zrotation Xrotation Yrotation
										End Site
										{
OFFSET 0 -0.557470 0.000000
										}
									}
								}
								JOINT RThumb
								{
OFFSET 0 0.000000 0.000000
CHANNELS 3 Zrotation Xrotation Yrotation
									End Site
									{
OFFSET 0 -0.565980 0.565980
									}
								}
							}
						}
					}
				}
			}
		}
	}
}
MOTION
Frames: 12
Frame Time: 0.008333333333333333
5.255877 17.485053 -12.107959 295.366763 84.206827 305.647927 0.000000 0.000000 0.000000 -5.297816 -0.239913 -16.931238 11.465355 18.153825 64.281962 -0.391186 -22.725043 -13.011594 0.534098 -4.682806 -13.005980 0.000000 0.000000 0.000000 27.507118 17.398668 -13.071649 -3.251840 -11.092046 32.590873 -1.681660 6.203828 -23.300599 -0.033252 -1.177663 3.237617 5.512123 -1.037234 19.512072 4.095958 0.428482 2.103350 1.194142 0.182661 -8.663788 8.388524 1.030798 -4.190263 -12.164137 0.612106 -9.970959 -5.100006 0.430118 -2.145296 0.000000 0.000000 0.000000 11.702076 17.822356 -43.390976 28.216061 -39.312605 10.260959 6.857975 10.927133 -7.885461 0.000000 0.000000 0.000000 -7.125000 0.000000 0.000000 -16.910165 37.413903 -3.270938 0.000000 0.000000 0.000000 -12.621183 18.782408 28.666763 -23.000105 -34.088735 -7.138410 -3.971103 9.988212 13.336927 0.000000 0.000000 0.000000 7.125000 0.000000 0.000000 20.892236 42.346356 1.436939
5.531456 17.443588 -12.094928 302.502212 83.631121 312.914192 0.000000 0.000000 0.000000 -4.963090 -0.231184 -20.121583 12.567071 18.618435 67.773484 -0.569334 -24.808970 -13.465055 0.581127 -4.880955 -13.569332 0.000000 0.000000 0.000000 27.875058 17.668961 -12.064196 -3.276863 -11.130286 32.720592 -1.779447 6.568975 -23.967217 -0.027938 -1.077992 2.963500 5.786298 -0.569713 19.586474 4.073976 1.100738 2.188325 0.835062 0.496075 -8.592521 8.623632 0.988756 -4.075082 -12.497142 0.527041 -10.183299 -5.248523 0.398412 -2.229711 0.000000 0.000000 0.000000 11.130175 20.298290 -43.654943 26.570570 -37.764619 9.235732 5.496767 12.135085 -8.489435 0.000000 0.000000 0.000000 -7.125000 0.000000 0.000000 -18.178532 37.898013 -3.309566 0.000000 0.000000 0.000000 -12.773134 17.590517 30.356813 -24.038535 -35.203191 -7.729525 -3.623799 11.004040 13.045134 0.000000 0.000000 0.000000 7.125000 0.000000 0.000000 21.089033 42.039255 1.620195
5.814342 17.416034 -12.080306 308.715978 83.238495 319.387464 0.000000 0.000000 0.000000 -4.948186 -0.505948 -23.329334 13.268279 18.876334 69.956177 -0.725982 -26.553855 -13.922454 0.627831 -5.069985 -14.108292 0.000000 0.000000 0.000000 27.930121 17.751701 -11.178998 -3.271767 -11.122498 32.694132 -1.864115 6.997358 -24.524961 -0.022152 -0.960724 2.640825 5.784467 -0.080515 19.505816 3.972665 1.717048 2.199200 0.562818 0.786960 -8.516317 8.783540 0.919599 -3.962240 -12.752000 0.411850 -10.387774 -5.359758 0.352497 -2.316628 0.000000 0.000000 0.000000 10.954438 22.915571 -44.290565 25.599604 -36.809994 8.646821 3.001053 12.648191 -9.185720 0.000000 0.000000 0.000000 -7.125000 0.000000 0.000000 -20.413587 38.372580 -3.505634 0.000000 0.000000 0.000000 -12.996430 16.814057 32.150028 -25.905602 -37.108613 -8.833317 -4.243148 11.509003 13.066823 0.000000 0.000000 0.000000 7.125000 0.000000 0.000000 20.569175 42.120547 1.533406
6.105028 17.403963 -12.065885 313.852068 83.005489 324.768284 0.000000 0.000000 0.000000 -5.152614 -1.121261 -26.312246 13.522385 18.962741 70.740371 -0.840272 -27.931314 -14.427556 0.672423 -5.243441 -14.604359 0.000000 0.000000 0.000000 27.815254 17.537878 -10.189880 -3.198601 -11.009655 32.312627 -1.913975 7.479664 -24.838712 -0.016135 -0.819117 2.251190 5.645898 0.379792 19.419702 3.808176 2.259122 2.173838 0.321314 1.043625 -8.477903 8.913138 0.827308 -3.802655 -12.951321 0.267835 -10.666155 -5.449933 0.295214 -2.437582 0.000000 0.000000 0.000000 11.187435 25.673980 -45.311659 25.306097 -36.515181 8.471366 -0.324151 12.326304 -9.918907 0.000000 0.000000 0.000000 -7.125000 0.000000 0.000000 -23.341882 38.791851 -3.817134 0.000000 0.000000 0.000000 -13.281356 16.441628 33.968584 -28.680516 -39.722938 -10.560515 -5.946677 11.346605 13.456465 0.000000 0.000000 0.000000 7.125000 0.000000 0.000000 19.237290 42.658224 1.161072
6.405576 17.413303 -12.051691 317.747194 82.923622 328.822192 0.000000 0.000000 0.000000 -5.470637 -2.101749 -28.905421 13.321646 18.894865 70.121329 -0.894645 -28.913202 -15.003549 0.709726 -5.384041 -15.007358 0.000000 0.000000 0.000000 27.644011 17.012946 -8.944809 -3.035383 -10.751691 31.447352 -1.913140 7.966702 -24.816692 -0.009064 -0.612867 1.684092 5.471169 0.775990 19.404065 3.603838 2.712588 2.139467 0.080410 1.257270 -8.488786 9.005012 0.725658 -3.637297 -13.080338 0.114346 -10.987214 -5.512135 0.234273 -2.574751 0.000000 0.000000 0.000000 11.801253 28.516902 -46.669417 25.612915 -36.823508 8.654689 -3.921941 11.220719 -10.630477 0.000000 0.000000 0.000000 -7.125000 0.000000 0.000000 -26.475274 39.136095 -4.173992 0.000000 0.000000 0.000000 -13.630467 16.360841 35.713838 -32.351145 -42.813502 -12.982976 -8.564291 10.663077 14.093499 0.000000 0.000000 0.000000 7.125000 0.000000 0.000000 17.167876 43.538779 0.642262
6.716375 17.439511 -12.037528 320.233616 82.997361 331.385766 0.000000 0.000000 0.000000 -5.796304 -3.442830 -31.071822 12.706218 18.673453 68.210475 -0.871587 -29.439159 -15.655064 0.737681 -5.486794 -15.302543 0.000000 0.000000 0.000000 27.488672 16.222053 -7.377992 -2.770727 -10.314260 30.000573 -1.847154 8.391818 -24.367201 -0.002482 -0.318851 0.875968 5.320104 1.088755 19.450316 3.388002 3.067118 2.105023 -0.161577 1.422255 -8.534086 9.030473 0.619331 -3.531246 -13.121321 -0.038941 -11.266646 -5.534017 0.170725 -2.691497 0.000000 0.000000 0.000000 12.720692 31.358658 -48.236773 26.376549 -37.578088 9.116352 -7.240913 9.582361 -11.248407 0.000000 0.000000 0.000000 -7.125000 0.000000 0.000000 -29.331124 39.388008 -4.520623 0.000000 0.000000 0.000000 -14.037361 16.435061 37.255477 -36.823881 -46.070685 -16.113291 -11.678739 9.820214 14.734259 0.000000 0.000000 0.000000 7.125000 0.000000 0.000000 14.612817 44.504402 0.182949
7.041062 17.489359 -12.021548 320.823402 83.222996 331.997543 0.000000 0.000000 0.000000 -6.009045 -5.114901 -32.753268 11.718948 18.267642 65.093230 -0.764123 -29.431159 -16.331067 0.748459 -5.526089 -15.415452 0.000000 0.000000 0.000000 27.436203 15.205484 -5.439805 -2.408171 -9.667501 27.907774 -1.712330 8.690262 -23.446439 -0.000234 0.054385 -0.149291 5.249087 1.295414 19.519780 3.196674 3.306115 2.062471 -0.393337 1.530016 -8.601305 8.958454 0.515159 -3.485450 -13.054954 -0.178032 -11.442925 -5.502736 0.110112 -2.767930 0.000000 0.000000 0.000000 13.851351 34.108752 -49.829623 27.441295 -38.595873 9.773501 -9.881081 7.699113 -11.658986 0.000000 0.000000 0.000000 -7.125000 0.000000 0.000000 -31.546683 39.495285 -4.858415 0.000000 0.000000 0.000000 -14.488632 16.569434 38.495923 -41.976037 -49.184996 -19.926325 -14.751269 9.106430 15.154381 0.000000 0.000000 0.000000 7.125000 0.000000 0.000000 11.968582 45.281564 -0.082390
7.377682 17.551443 -12.004252 319.777584 83.575353 330.937516 0.000000 0.000000 0.000000 -6.102549 -7.015695 -33.999123 10.471579 17.662256 61.047588 -0.605837 -28.984409 -16.926090 0.738192 -5.488853 -15.308350 0.000000 0.000000 0.000000 27.462723 14.019773 -3.164724 -1.977260 -8.814207 25.218787 -1.516106 8.826150 -22.052885 -0.005350 0.461614 -1.268382 5.228435 1.413503 19.579231 3.026115 3.442761 2.006595 -0.604748 1.587356 -8.679407 8.804631 0.405882 -3.459359 -12.891724 -0.312203 -11.521096 -5.424729 0.048312 -2.812553 0.000000 0.000000 0.000000 15.081897 36.700839 -51.250998 28.657030 -39.712343 10.541522 -11.896456 5.772878 -11.795525 0.000000 0.000000 0.000000 -7.125000 0.000000 0.000000 -33.142896 39.413148 -5.259152 0.000000 0.000000 0.000000 -14.938502 16.730034 39.408465 -47.607294 -51.963576 -24.281584 -17.307890 8.480214 15.266195 0.000000 0.000000 0.000000 7.125000 0.000000 0.000000 9.665714 45.708062 -0.169563
7.726499 17.622225 -11.986513 317.324347 83.973582 328.449596 0.000000 0.000000 0.000000 -6.077587 -8.996596 -34.832296 9.066572 16.843629 56.310100 -0.444507 -28.285326 -17.339668 0.704663 -5.365223 -14.953310 0.000000 0.000000 0.000000 27.554696 12.737738 -0.618145 -1.522152 -7.783235 22.061376 -1.269918 8.805676 -20.188852 -0.015605 0.803027 -2.207084 5.245616 1.472939 19.605775 2.867530 3.510100 1.942118 -0.805614 1.610806 -8.749933 8.588832 0.293637 -3.450423 -12.632161 -0.439068 -11.504797 -5.303766 -0.014222 -2.826131 0.000000 0.000000 0.000000 16.334935 39.085597 -52.375198 29.956706 -40.854212 11.382082 -13.513724 3.830442 -11.708486 0.000000 0.000000 0.000000 -7.125000 0.000000 0.000000 -34.319279 39.173108 -5.750775 0.000000 0.000000 0.000000 -15.361390 16.905392 40.013094 -53.567865 -54.317194 -29.053790 -19.190065 7.744105 15.051854 0.000000 0.000000 0.000000 7.125000 0.000000 0.000000 7.881741 45.723657 -0.142206
8.087161 17.696544 -11.969802 314.138623 84.328997 325.221593 0.000000 0.000000 0.000000 -5.984052 -10.900696 -35.296497 7.617568 15.824015 51.161998 -0.300310 -27.446885 -17.563712 0.667089 -5.223259 -14.546406 0.000000 0.000000 0.000000 27.660544 11.421520 2.146997 -1.079584 -6.595668 18.526047 -0.986795 8.615993 -17.836243 -0.026279 1.045198 -2.873298 5.274196 1.518858 19.580560 2.693981 3.556228 1.873087 -1.021855 1.623742 -8.795917 8.327171 0.173757 -3.474275 -12.258869 -0.564730 -11.384086 -5.137379 -0.082616 -2.803581 0.000000 0.000000 0.000000 17.574262 41.231085 -53.161052 31.332670 -42.006832 12.292561 -14.983619 1.793256 -11.576680 0.000000 0.000000 0.000000 -7.125000 0.000000 0.000000 -35.345643 38.906832 -6.265797 0.000000 0.000000 0.000000 -15.725995 17.106476 40.342986 -59.702307 -56.216423 -34.096500 -20.428066 6.759006 14.560697 0.000000 0.000000 0.000000 7.125000 0.000000 0.000000 6.630072 45.367119 -0.061197
8.459320 17.769935 -11.954667 311.042200 84.572475 322.097987 0.000000 0.000000 0.000000 -5.862833 -12.599517 -35.476077 6.246904 14.660302 45.958908 -0.163257 -26.423805 -17.639633 0.644612 -5.136099 -14.297148 0.000000 0.000000 0.000000 27.739766 10.135277 5.088308 -0.680087 -5.266907 14.672829 -0.689323 8.200734 -15.010812 -0.038711 1.268737 -3.488627 5.283458 1.591831 19.472007 2.489064 3.622927 1.804692 -1.263177 1.647515 -8.792909 8.036849 0.047035 -3.537235 -11.764507 -0.688841 -11.168180 -4.927164 -0.157316 -2.746229 0.000000 0.000000 0.000000 18.785415 43.100091 -53.654664 32.769855 -43.151519 13.264759 -16.335996 -0.329719 -11.528243 0.000000 0.000000 0.000000 -7.125000 0.000000 0.000000 -36.304523 38.720572 -6.707096 0.000000 0.000000 0.000000 -16.021281 17.339439 40.455741 -65.778323 -57.657846 -39.188880 -21.207709 5.628999 13.901072 0.000000 0.000000 0.000000 7.125000 0.000000 0.000000 5.778027 44.769293 0.032661
8.842049 17.838226 -11.940844 309.023077 84.675574 320.082636 0.000000 0.000000 0.000000 -5.774696 -13.987557 -35.467770 5.070767 13.460933 41.123169 0.000912 -25.059674 -17.697308 0.646369 -5.143207 -14.317405 0.000000 0.000000 0.000000 27.735142 8.875793 8.190494 -0.346086 -3.773037 10.439856 -0.400730 7.497949 -11.661324 -0.061620 1.601199 -4.404610 5.224584 1.721112 19.253350 2.238960 3.734361 1.744884 -1.521049 1.696052 -8.717590 7.730120 -0.076796 -3.668769 -11.141962 -0.799586 -10.854767 -4.674188 -0.233147 -2.647037 0.000000 0.000000 0.000000 19.963781 44.648491 -53.928368 34.245847 -44.265440 14.284556 -17.426906 -2.396660 -11.607131 0.000000 0.000000 0.000000 -7.125000 0.000000 0.000000 -37.118887 38.666861 -6.982828 0.000000 0.000000 0.000000 -16.251481 17.580492 40.428366 -71.441431 -58.654864 -44.000637 -21.754861 4.610064 13.214910 0.000000 0.000000 0.000000 7.125000 0.000000 0.000000 5.149254 44.107887 0.113510
